<?xml version="1.0" encoding="UTF-8"?>
<svg width="1440px" height="340px" viewBox="0 0 1440 340" version="1.1" xmlns="http://www.w3.org/2000/svg" xmlns:xlink="http://www.w3.org/1999/xlink">
    <!-- Generator: Sketch 42 (36781) - http://www.bohemiancoding.com/sketch -->
    <title>bg</title>
    <desc>Created with Sketch.</desc>
    <defs>
        <rect id="path-1" x="0" y="0" width="1440" height="339.480469"></rect>
        <polygon id="path-3" points="0.498701285 71.1449074 258.322472 71.1449074 258.322472 0.322476043 0.498701285 0.322476043 0.498701285 71.1449074"></polygon>
    </defs>
    <g id="New-Home-Screen" stroke="none" stroke-width="1" fill="none" fill-rule="evenodd">
        <g id="home-v5" transform="translate(0.000000, -2234.000000)">
            <g id="CTA" transform="translate(0.000000, 2234.000000)">
                <g id="bg">
                    <mask id="mask-2" fill="white">
                        <use xlink:href="#path-1"></use>
                    </mask>
                    <use id="Rectangle-3" fill="#F9F9F9" xlink:href="#path-1"></use>
                    <g id="pattern" opacity="0.1" mask="url(#mask-2)">
                        <g transform="translate(-554.000000, -1.000000)">
                            <g id="Group-11" stroke-width="1" fill="none" transform="translate(659.766175, 99.000000) rotate(-32.000000) translate(-659.766175, -99.000000) translate(609.266175, 19.000000)" fill-opacity="0.3">
                                <path d="M12.759684,36.6943981 L0.764867194,14.7659259 C-1.92205204,9.85180556 5.47450083,5.16137346 8.18750666,10.1226389 L20.1813201,32.0511111 C22.870246,36.9652315 15.4736932,41.6546605 12.759684,36.6943981" id="Fill-50" fill="#1C1E22"></path>
                                <path d="M58.8095466,57.8640355 C56.4145966,48.1511497 51.8604792,39.4584028 44.9916782,32.1589429 C41.1539388,28.0823997 47.0424858,21.6024614 50.9103251,25.7121065 C58.8255999,34.121983 64.4061245,44.0515355 67.1753168,55.2840972 C68.5177731,60.7268441 60.1630396,63.3529244 58.8095466,57.8640355" id="Fill-52" fill="#1C1E22"></path>
                                <path d="M78.3789072,34.1328164 C75.288649,24.9064275 72.1983909,15.6800386 69.1081328,6.45364969 C67.3181911,1.11221451 75.6819546,-1.47574846 77.473903,3.87371142 C80.5641611,13.1001003 83.6544192,22.3264892 86.7446774,31.5528781 C88.5346191,36.8943133 80.1708555,39.4822762 78.3789072,34.1328164" id="Fill-54" fill="#1C1E22"></path>
                                <path d="M27.7700108,77.6622531 L24.343637,64.8026852 C22.898841,59.3769907 31.2545779,56.7589352 32.7104105,62.2227469 L36.135781,75.0833179 C37.5815803,80.5090123 29.2258435,83.1260648 27.7700108,77.6622531" id="Fill-57" fill="#1C1E22"></path>
                                <path d="M69.4272923,111.051188 C67.5761474,103.169938 65.7250025,95.2866821 63.8728543,87.4054321 C62.5926045,81.9536574 70.9463347,79.3225617 72.2386245,84.8254938 C74.0897694,92.7067438 75.9419176,100.588997 77.7930624,108.47125 C79.0743156,113.922022 70.7205853,116.553117 69.4272923,111.051188" id="Fill-59" fill="#1C1E22"></path>
                                <path d="M92.3863047,98.9788426 L86.3944147,70.9827006 C85.2255346,65.519892 93.5782614,62.8787654 94.7601848,68.4027623 C96.7568127,77.7334722 98.7544438,87.0661883 100.751072,96.3989043 C101.920955,101.861713 93.5682281,104.50284 92.3863047,98.9788426" id="Fill-61" fill="#1C1E22"></path>
                                <path d="M46.7293464,127.479637 C45.7430724,120.98064 44.7557952,114.481644 43.7695212,107.982647 C42.9237136,102.413511 51.6767694,102.088511 52.5155537,107.607492 C53.5018276,114.107492 54.4881016,120.606489 55.4753789,127.105486 C56.3201832,132.674622 47.5671274,132.999622 46.7293464,127.479637" id="Fill-63" fill="#1C1E22"></path>
                                <path d="M84.5992556,155.734576 L82.9367369,138.310965 C82.399955,132.692677 91.1479942,132.341597 91.681766,137.937816 L93.3452881,155.361427 C93.8810666,160.979715 85.1330275,161.330795 84.5992556,155.734576" id="Fill-65" fill="#1C1E22"></path>
                            </g>
                            <g id="Group-72" stroke-width="1" fill="none" transform="translate(365.212323, 231.209105)">
                                <mask id="mask-4" fill="white">
                                    <use xlink:href="#path-3"></use>
                                </mask>
                                <g id="Clip-71"></g>
                                <path d="M101.998685,7.53277778 C104.621391,4.24265432 107.823019,0.890339506 111.999884,0.386790123 C119.099451,-0.468842593 124.326803,7.37128086 125.120438,14.476142 C126.560217,27.3477469 119.703456,39.8552315 119.864992,52.8060802 C120.089738,71.0171142 134.579838,86.6662654 151.434788,93.5735185 C168.289738,100.481775 187.124259,100.319275 205.311632,99.2911111 C214.395787,98.7765278 223.592315,98.0803858 232.527977,99.7996759 C241.461632,101.520972 250.283918,106.019815 255.089871,113.74358 C259.896828,121.466343 259.529609,132.696898 252.727028,138.738488 C245.289338,145.341806 232.720617,144.435015 226.51903,152.210941 C222.155546,157.681775 222.664234,165.767654 225.61804,172.11017 C228.571845,178.453688 233.550371,183.578457 237.954992,189.013179 C244.552894,197.152222 250.003989,206.216111 254.101591,215.857778 C255.626653,219.444815 256.981149,223.435093 255.867453,227.170586 C254.170821,232.860093 247.189647,235.541343 241.343239,234.502145 C235.496832,233.464954 230.551416,229.720432 225.820712,226.132392 C203.323031,209.069892 180.070846,193.000448 156.156462,177.988256 C143.079051,169.777994 129.637432,161.809475 114.874426,157.283549 C102.371924,153.450756 89.2242802,152.183858 76.5742885,148.865648 C56.74948,143.667654 38.1477315,133.237562 24.2716699,118.15716 C10.3956082,103.076759 1.45392631,83.2698148 0.546915487,62.7998302 C0.214813072,55.3117901 1.49405953,46.7584722 7.6655458,42.5043827 C12.5096257,39.1661111 19.1065241,39.5302315 24.6067823,41.6186574 C30.1060371,43.7070833 34.8859038,47.290108 39.9737931,50.2431944 C50.6913701,56.4623302 72.3191636,66.7760648 80.1672152,52.8793056 C88.6343218,37.8861728 90.6841261,21.7294599 101.998685,7.53277778" id="Fill-70" fill="#6A7FCB" mask="url(#mask-4)"></path>
                            </g>
                            <g id="blobgs" stroke-width="1" fill="none" transform="translate(498.851790, 7.499228)" fill-opacity="0.3">
                                <path d="M479.707708,103.615645 C476.067112,81.2040725 458.732447,53.6914794 436.609381,45.2898524 C413.057211,36.3438513 384.485088,27.7224852 360.235552,39.034072 C338.854172,49.0082347 357.674924,64.6332173 351.651885,81.9184505 C347.814109,92.934339 337.531799,100.392806 327.074921,105.568881 C316.618043,110.746765 305.290136,114.462434 296.005485,121.530255 C289.405378,126.554411 283.68625,134.644063 285.884176,142.641479 C288.105618,150.721184 297.081835,154.648454 305.10381,157.072817 C314.731265,159.982777 324.627355,162.318522 334.683541,162.51475 C358.918606,162.984973 383.173569,151.07566 406.716694,156.842227 C422.742553,160.767689 435.606295,172.269173 449.587993,181.027085 C463.569692,189.784997 481.646043,195.928647 496.255462,188.2631 C505.524736,183.399905 511.640938,173.332602 512.388052,162.893641 C513.135165,152.453776 508.751978,141.910824 501.323353,134.537359 C494.727768,127.991306 485.59055,123.359605 482.079297,114.757228 C480.640244,111.233265 480.318243,107.372912 479.707708,103.615645" id="Fill-73" fill="#1C1E22" transform="translate(398.938100, 112.692504) rotate(19.000000) translate(-398.938100, -112.692504) "></path>
                                <path d="M808.51793,168.386389 C805.819974,170.524969 802.657477,172.478982 798.781611,172.895262 C792.359292,173.587392 785.984129,170.003364 779.714317,167.699275 C764.992447,162.288627 747.586669,164.080139 736.754712,172.122886 C725.923759,180.165633 722.209429,194.054367 727.588284,206.403364 C737.881452,230.031065 774.444825,241.737083 787.048663,264.796034 C798.336132,285.447577 786.662381,307.099198 785.110228,328.555216 C784.886486,331.639707 784.897522,334.841559 786.266065,337.874892 C789.126561,344.216404 797.554537,348.455448 805.558105,349.211775 C839.98639,352.463781 861.795786,328.21517 872.975899,306.250586 C880.663417,291.151127 893.017427,277.963549 900.891565,262.723657 C909.173055,246.69534 915.297385,229.763241 919.085961,212.281451 C923.199616,193.293025 927.419625,168.812701 912.504113,150.10213 C897.813347,131.674429 877.238047,127.185617 855.173805,133.088781 C832.340008,139.196574 824.798975,155.481682 808.51793,168.386389" id="Fill-76" fill="#1C1E22" transform="translate(824.053635, 240.078175) rotate(-215.000000) translate(-824.053635, -240.078175) "></path>
                                <path d="M60.3138046,121.841892 C54.6068603,123.345519 49.5019145,126.564423 44.7972975,130.128389 C31.2152117,140.417046 19.6538337,155.289809 19.0227388,172.314191 C18.6775931,181.594747 22.2544665,191.621599 30.2409777,196.365194 C36.5238337,200.096676 44.6608445,199.937185 51.3209528,196.931938 C58.8930885,193.516429 62.2261526,186.044438 67.6280843,180.233559 C72.5444041,174.945287 79.3961484,170.758404 82.8134923,164.209253 C88.7120727,152.902463 89.0762817,131.692201 77.3684174,123.977463 C72.4400577,120.731475 66.0207488,120.338265 60.3138046,121.841892 Z" id="Fill-146" fill="#1C1E22" transform="translate(52.916695, 160.088576) rotate(161.000000) translate(-52.916695, -160.088576) "></path>
                                <path d="M952.547103,116.055339 C949.213035,120.22216 945.005067,123.620616 940.548273,126.557653 C934.10689,130.799706 926.96418,134.178101 919.342881,135.368765 C911.722586,136.557422 903.572531,135.411897 897.095029,131.225015 C889.037282,126.01699 884.354738,116.60503 883.147731,107.088749 C881.940725,97.5704621 883.846049,87.9137491 886.672432,78.7465423 C889.852989,68.4287954 894.29674,58.3337337 901.197648,50.0291812 C907.074155,42.9564188 914.561008,37.3842738 922.394009,32.5674528 C925.98192,30.3596596 929.757452,28.2601997 933.914251,27.5720824 C942.022165,26.231959 950.239442,30.6294898 955.582178,36.8737028 C962.206166,44.6135176 966.84356,56.2282553 969.240517,66.068533 C970.543843,71.4210022 968.502065,78.4115114 967.179676,83.6315732 C964.386403,94.6615114 959.70386,107.107808 952.547103,116.055339" id="Fill-188" fill="#1C1E22" transform="translate(926.218654, 81.571215) rotate(45.000000) translate(-926.218654, -81.571215) "></path>
                                <path d="M628.735349,255.578224 C668.342827,268.29736 692.201024,319.06557 682.195812,350.240493 C672.190599,381.414413 622.094304,383.635246 582.486827,370.91611 C542.880354,358.197977 524.722077,314.195586 534.727289,283.020663 C544.732502,251.84574 589.127872,242.858086 628.735349,255.578224" id="Fill-221" fill="#1C1E22"></path>
                                <path d="M1193.3045,394.176182 C1185.00193,396.312756 1178.7853,392.128883 1173.82684,387.688219 C1168.86838,383.247556 1163.77347,378.209053 1155.89632,378.460827 C1147.92285,378.714608 1139.16076,384.339917 1131.20034,389.82379 C1102.96762,409.27163 1075.07804,430.613297 1045.31023,444.600334 C1042.0173,446.147093 1038.34912,447.637679 1035.73344,446.687756 C1031.54855,445.168081 1032.67027,438.712216 1034.54048,433.450025 C1041.40727,414.12055 1053.00176,394.764994 1067.87915,377.791769 C1094.49951,347.422324 1121.52823,321.911831 1153.67996,297.902957 C1177.85421,279.850411 1193.59145,271.512756 1224.74887,279.589608 C1258.67449,288.383667 1245.66631,315.462988 1240.36872,341.21021 C1236.6855,359.11129 1212.44604,389.251028 1193.3045,394.176182" id="Fill-229" fill="#1C1E22"></path>
                                <path d="M162.171303,329.176639 C136.484034,332.900095 110.019184,333.59724 84.2616816,334.161978 C61.1599955,334.667534 37.9198498,327.693074 19.0120854,314.391145 C15.1291962,311.658737 11.2764068,308.481963 9.44733523,304.101484 C5.62865913,294.961361 17.5763194,280.443691 22.9561779,273.77116 C37.8787132,255.260203 59.1352744,242.533043 81.707202,235.049015 C104.280133,227.564987 128.214583,225.041222 151.986494,224.366145 C164.565249,224.009046 177.273434,224.16954 189.54818,226.943074 C212.218434,232.065836 232.475678,246.183274 246.323647,264.843691 C250.158376,270.013598 253.640936,275.860589 253.861669,282.293382 C254.091432,288.956886 250.692148,295.363598 245.939371,300.041994 C241.185591,304.720389 235.172631,307.894154 229.105491,310.665682 C207.977356,320.313367 185.159613,325.845389 162.171303,329.176639" id="Fill-232" fill="#1C1E22" transform="translate(131.290220, 279.207492) rotate(-38.000000) translate(-131.290220, -279.207492) "></path>
                            </g>
                            <g id="Group-8" stroke-width="1" fill="none" transform="translate(763.266175, 234.000000)" fill-opacity="0.3">
                                <path d="M67.3574413,103.808248 L50.1081823,95.3020756 C44.6560841,92.6128009 40.3929326,101.061798 45.8721207,103.76311 C51.6222082,106.598835 57.3712923,109.433557 63.1213797,112.270285 C68.5734779,114.958557 72.8366295,106.510563 67.3574413,103.808248" id="Fill-83" fill="#1C1E22"></path>
                                <path d="M203.774177,81.6462577 C195.746529,78.7804398 187.717878,75.9136188 179.689227,73.0467978 C174.033453,71.0275849 169.714114,79.4585262 175.453165,81.5078318 C183.481816,84.3746528 191.510468,87.2414738 199.538115,90.1082948 C205.19389,92.1265046 209.514231,83.6955633 203.774177,81.6462577" id="Fill-86" fill="#1C1E22"></path>
                                <path d="M116.107668,8.67172068 C107.227189,4.77673611 97.954408,2.0814429 88.3455112,0.750347222 C82.3476012,-0.0812114198 80.37405,9.17627315 86.4281465,10.0148534 C95.2403988,11.2356096 103.722555,13.5587577 111.871606,17.1337577 C117.422031,19.5672454 121.706252,11.1272762 116.107668,8.67172068" id="Fill-88" fill="#1C1E22"></path>
                                <path d="M172.341235,42.5425386 C167.820228,38.3696991 163.298217,34.1968596 158.776206,30.0250231 C154.301352,25.8933102 147.967326,32.9209336 152.44519,37.0536497 C156.967201,41.2264892 161.489212,45.3993287 166.010219,49.5721682 C170.486077,53.701875 176.820103,46.6742515 172.341235,42.5425386" id="Fill-90" fill="#1C1E22"></path>
                                <path d="M180.625033,105.157099 C173.189351,99.7253858 165.192806,95.746142 156.35848,93.1391204 C150.521103,91.4158179 148.623805,100.686343 154.440112,102.403627 C161.566769,104.507099 168.292094,107.802238 174.293014,112.186728 C179.162177,115.743673 185.544363,108.751157 180.625033,105.157099" id="Fill-92" fill="#1C1E22"></path>
                                <path d="M129.445443,53.7087963 C123.385326,51.0746914 117.325209,48.4415895 111.265093,45.8074846 C105.709652,43.3930556 101.423423,51.8320216 107.030035,54.2695216 C113.090151,56.9026235 119.150268,59.5367284 125.209381,62.1708333 C130.765826,64.5852623 135.052054,56.1462963 129.445443,53.7087963" id="Fill-95" fill="#1C1E22"></path>
                                <path d="M25.2039126,63.1734182 C18.9330966,61.4471065 13.1017394,58.7989583 7.57539467,55.3774306 C2.40623564,52.1775849 -1.81276936,60.6486497 3.33933306,63.8384645 C9.55697252,67.6873071 16.2401574,70.4999614 23.2865479,72.4379244 C29.1580383,74.0548997 31.0643664,64.7863812 25.2039126,63.1734182" id="Fill-97" fill="#1C1E22"></path>
                                <path d="M62.3589488,19.5831944 C55.9416465,15.0091204 48.9805391,11.8343519 41.2278039,10.2966204 C35.2609971,9.11197531 33.3185491,18.371466 39.3104392,19.5611265 C45.3364425,20.7578086 51.0062635,23.0348148 56.027933,26.6138272 C60.9292027,30.105571 67.3164051,23.1160648 62.3589488,19.5831944" id="Fill-99" fill="#1C1E22"></path>
                                <path d="M63.9868526,51.9896065 L37.2812032,44.3922299 C31.4247627,42.7261034 29.522448,51.9946219 35.3628351,53.6567361 C44.2653872,56.1895293 53.1669359,58.7223225 62.0684846,61.2541127 C67.9249251,62.9202392 69.8272398,53.6517207 63.9868526,51.9896065" id="Fill-79" fill="#1C1E22"></path>
                                <path d="M104.22402,82.714946 C97.6431749,80.3827701 91.0623297,78.0515972 84.4824879,75.7184182 C78.8237036,73.7132485 74.5023589,82.1441898 80.2464263,84.1794522 C86.8272714,86.5116281 93.4081166,88.843804 99.9879584,91.176983 C105.646743,93.1821528 109.968087,84.7502083 104.22402,82.714946" id="Fill-81" fill="#1C1E22"></path>
                            </g>
                            <path d="M1805.66382,241.403095 C1807.89871,246.036932 1815.53259,245.251191 1821.19694,242.96362 C1835.12923,237.336651 1846.51507,226.603148 1859.75223,219.327218 C1861.96052,218.112606 1864.49209,216.952777 1866.73717,217.440344 C1870.12826,218.177563 1870.88758,222.134442 1870.52201,225.494188 C1870.15723,228.853935 1869.25231,232.578379 1871.09346,235.179776 C1872.71385,237.468129 1876.14174,238.170131 1879.35201,237.625434 C1882.56227,237.079954 1885.6152,235.485777 1888.52409,233.823512 C1903.61414,225.199144 1917.01491,213.987466 1929.95774,202.552744 C1952.82492,182.351219 1975.37429,160.190037 1986.69281,133.805889 C1988.7461,129.020226 1990.2843,123.294647 1987.14214,119.822987 C1984.57925,116.992285 1979.80807,116.763763 1975.46353,117.138633 C1959.42315,118.518375 1943.62701,125.591609 1928.94167,133.681454 C1907.6941,145.388525 1883.84763,159.910645 1866.24948,176.525466 C1852.68354,189.33367 1843.1365,196.288729 1828.37522,207.759452 C1822.84395,212.057549 1815.97252,217.769823 1811.20292,224.022098 C1807.87053,228.39063 1803.27001,236.440562 1805.66382,241.403095" id="Fill-101" fill-opacity="0.3" fill="#1C1E22"></path>
                            <g id="sprinkles" stroke-width="1" fill="none" transform="translate(1071.000000, 27.000000)" fill-opacity="0.3">
                                <path d="M103.022621,17.912716 C102.066447,13.4108642 101.111276,8.90800926 100.156105,4.40615741 C98.8929122,-1.54214506 89.561938,0.0347067901 90.8301478,6.00507716 C91.7853185,10.506929 92.7414925,15.0087809 93.6966632,19.5116358 C94.9598564,25.4589352 104.289827,23.8830864 103.022621,17.912716" id="Fill-104" fill="#1C1E22"></path>
                                <path d="M62.0859313,34.1687346 C60.0190704,41.4070062 60.2387998,48.4516821 62.6036499,55.5826235 C64.5200112,61.3664198 73.1175508,57.3941975 71.2202527,51.6705864 C69.6831503,47.0363272 69.6510437,42.0620216 70.98748,37.3826235 C72.6479921,31.5667284 63.7635,28.2936574 62.0859313,34.1687346" id="Fill-107" fill="#1C1E22"></path>
                                <path d="M100.314832,54.4988889 C97.6690495,54.3855401 95.5289455,56.1740432 95.1918264,58.8021296 C94.8908272,61.1473457 94.5898281,63.4915586 94.2898322,65.8367747 C93.9747864,68.2943364 96.1138872,70.8522068 98.5941203,70.958534 C101.239903,71.0718827 103.380007,69.2833796 103.718129,66.6542901 C104.018125,64.3100772 104.319124,61.9648611 104.620124,59.6206481 C104.934166,57.1630864 102.796069,54.605216 100.314832,54.4988889" id="Fill-109" fill="#1C1E22"></path>
                                <path d="M150.224206,39.8071836 C147.953669,38.2012423 145.322937,39.0097299 143.629315,40.937662 C140.235047,44.8015509 136.841784,48.6634336 133.446513,52.5273225 C131.757908,54.4492361 132.646858,57.755409 134.577266,59.1196065 C136.847803,60.7255478 139.478536,59.9170602 141.172158,57.9891281 C144.566425,54.1252392 147.960693,50.2633565 151.353957,46.3994676 C153.043565,44.477554 152.153611,41.1713812 150.224206,39.8071836" id="Fill-111" fill="#1C1E22"></path>
                                <path d="M107.426339,96.8930324 C105.927363,95.066412 102.587276,94.4184182 100.767234,96.2309954 C98.3562306,98.6313812 95.9452273,101.03277 93.5332206,103.434159 C91.725219,105.234699 91.1402773,107.983156 92.8710225,110.091644 C94.3699983,111.918264 97.7100858,112.567261 99.5301274,110.753681 L106.764141,103.55152 C108.572142,101.75098 109.158087,99.0035262 107.426339,96.8930324" id="Fill-113" fill="#1C1E22"></path>
                                <path d="M123.09164,3.84693673 C121.657881,9.59763117 120.224121,15.3493287 118.789358,21.1010262 C117.332522,26.9430015 126.215008,30.2351312 127.690907,24.313912 C129.12567,18.5632176 130.559429,12.8125231 131.993189,7.06082562 C133.450025,1.21784722 124.567539,-2.07227623 123.09164,3.84693673" id="Fill-115" fill="#1C1E22"></path>
                                <path d="M58.7026003,87.3195756 C56.5333997,86.535162 53.2053522,87.6546065 52.6444904,90.1623225 C51.5669134,94.9741281 49.0044072,98.6604707 44.8536286,101.322662 C42.7024879,102.702909 42.7044946,106.168573 44.1914305,107.98115 C45.9703356,110.148819 48.691368,110.028449 50.8505354,108.643187 C56.1942739,105.21564 60.158433,99.5722762 61.5460391,93.3762114 C62.1038909,90.8865509 61.3222964,88.2684954 58.7026003,87.3195756" id="Fill-118" fill="#1C1E22"></path>
                                <path d="M150.446645,74.1326003 C148.690816,71.993017 145.921624,72.0471836 143.78754,73.4705633 C139.306666,76.4587577 134.826795,79.4469522 130.34592,82.4351466 C128.220866,83.8535108 128.17672,87.2559799 129.683722,89.0926312 C131.439551,91.2322145 134.208743,91.1790509 136.342827,89.7556713 C140.823701,86.7674769 145.304576,83.7782793 149.784447,80.791088 C151.909501,79.3727238 151.953647,75.9692515 150.446645,74.1326003" id="Fill-120" fill="#1C1E22"></path>
                                <path d="M129.161087,125.295826 C121.679251,128.992199 114.197415,132.686566 106.71558,136.381937 C101.256458,139.078233 105.162424,147.695748 110.628569,144.996443 C118.110405,141.301073 125.592241,137.605702 133.074077,133.910332 C138.534201,131.213032 134.628236,122.59652 129.161087,125.295826" id="Fill-122" fill="#1C1E22"></path>
                                <path d="M67.8452494,133.404776 L59.3731261,144.794823 C55.7380595,149.683866 63.4647082,155.143665 67.0987714,150.257631 L75.5698913,138.866582 C79.2059613,133.978542 71.4793127,128.518742 67.8452494,133.404776" id="Fill-124" fill="#1C1E22"></path>
                                <path d="M78.5571074,165.05787 C74.8367577,167.962809 71.1154047,170.866744 67.3940516,173.771682 C62.5840849,177.526235 68.5960416,184.834722 73.3909584,181.091204 C77.1123114,178.187269 80.8326611,175.28233 84.5540142,172.378395 C89.3639808,168.623843 83.3520241,161.315355 78.5571074,165.05787" id="Fill-126" fill="#1C1E22"></path>
                                <path d="M29.7839047,165.05787 C20.8622893,169.382176 11.9416774,173.705478 3.02106536,178.029784 C-2.46213614,180.685957 1.44784305,189.302469 6.93405454,186.64429 C15.8546665,182.319985 24.7752785,177.995679 33.6958905,173.672377 C39.179092,171.014198 35.2701162,162.399691 29.7839047,165.05787" id="Fill-128" fill="#1C1E22"></path>
                                <path d="M20.0543072,126.306736 C18.0466428,125.01777 14.8018718,125.152184 13.4604188,127.437215 C11.8330167,130.209745 10.2046112,132.98027 8.57720899,135.752801 C7.37421565,137.801103 7.42939883,140.227569 9.24342048,141.913758 C10.877846,143.433434 13.6881749,143.733356 15.4379833,142.144468 L16.766393,140.936752 C17.7265803,140.065069 18.3426253,138.815224 18.4610183,137.538295 C19.3690325,135.992539 20.2770466,134.445779 21.1850608,132.89902 C22.4352107,130.771474 22.3328709,127.769236 20.0543072,126.306736" id="Fill-130" fill="#1C1E22"></path>
                            </g>
                            <g id="Group-9" stroke-width="1" fill="none" transform="translate(1472.000000, 240.000000)" fill-opacity="0.3">
                                <path d="M82.2750412,40.9245756 C87.9328222,36.7396991 93.5895999,32.5548225 99.2473809,28.369946 C104.129587,24.7588349 97.6952286,17.8164738 92.8350953,21.4115355 C87.1783177,25.596412 81.5205366,29.7812886 75.8627556,33.9661651 C70.9805491,37.5772762 77.4159113,44.5196373 82.2750412,40.9245756" id="Fill-132" fill="#1C1E22"></path>
                                <path d="M77.8492498,77.4726312 C81.9207652,73.8444676 85.9912773,70.2153009 90.0617893,66.5851312 C94.6028634,62.5366744 88.2046245,55.5652238 83.6495037,59.6267207 L71.4369642,70.5142207 C66.8958901,74.5626775 73.2941291,81.5341281 77.8492498,77.4726312" id="Fill-134" fill="#1C1E22"></path>
                                <path d="M53.9211203,22.9023225 C57.7307664,17.9340355 61.5404126,12.9667515 65.3500587,7.99846451 C69.0523485,3.16960648 61.0527939,-1.88895833 57.3655541,2.92084105 C53.5549047,7.888125 49.7452585,12.856412 45.9356124,17.8246991 C42.2333226,22.652554 50.2328772,27.7111188 53.9211203,22.9023225" id="Fill-136" fill="#1C1E22"></path>
                                <path d="M43.3715008,69.7172685 C46.6734617,65.4491358 49.9744192,61.1810031 53.2753768,56.9128704 C56.9967298,52.1010648 48.9961719,47.0435031 45.2898689,51.83625 C41.9889113,56.1033796 38.6879538,60.3725154 35.3869963,64.6396451 C31.6646399,69.4514506 39.6651978,74.5080093 43.3715008,69.7172685" id="Fill-138" fill="#1C1E22"></path>
                                <path d="M37.9932477,119.912816 C44.1536973,116.482261 49.3078064,112.057647 53.8157706,106.662045 C55.4662494,104.685965 54.3023859,101.397847 52.3619446,100.131952 C49.9980978,98.5902083 47.4586682,99.6354244 45.8302627,101.585424 C42.4460287,105.635887 38.2591303,108.94206 33.662873,111.501937 C28.354251,114.458032 32.6605458,122.881952 37.9932477,119.912816" id="Fill-140" fill="#1C1E22"></path>
                                <path d="M9.84611324,66.3505093 C10.643761,59.6709568 13.3166336,53.3926389 17.7302848,48.2889352 C21.6623372,43.7419444 15.3062381,36.7183333 11.3179992,41.3305247 C5.18664613,48.4183333 1.50943963,56.5192593 0.396746045,65.8429475 C-0.326655287,71.9045988 9.12772856,72.3690278 9.84611324,66.3505093" id="Fill-142" fill="#1C1E22"></path>
                                <path d="M9.67414238,114.923765 C12.6540341,107.468827 15.6339259,100.014892 18.614821,92.5609568 C20.8783347,86.898534 11.855383,84.04375 9.60390924,89.6750772 C6.62401749,97.1290123 3.6431224,104.582948 0.663230641,112.036883 C-1.60128643,117.700309 7.42266861,120.555093 9.67414238,114.923765" id="Fill-144" fill="#1C1E22"></path>
                            </g>
                            <g id="sprinkles" stroke-width="1" fill="none" transform="translate(1598.000000, 42.000000)" fill-opacity="0.3">
                                <path d="M17.9372923,16.0236111 C16.2918301,12.6482253 15.9547111,9.35308642 16.9359684,5.72492284 C17.6031832,3.25733025 15.487159,0.65632716 13.1243156,0.227006173 C10.427363,-0.261496914 8.29327893,1.56512346 7.62405745,4.03873457 C6.26855787,9.05115741 6.77122648,14.5932099 9.04878684,19.2645833 C10.1675004,21.5616512 12.5343572,23.0281636 15.1139201,22.0872685 C17.3242573,21.2817901 19.0640325,18.3347222 17.9372923,16.0236111" id="Fill-169" fill="#1C1E22"></path>
                                <path d="M59.134647,49.2381096 C58.6028818,40.6486806 56.0654588,32.5878781 51.8906003,25.0898071 C50.6384438,22.8418904 47.2210999,22.6382639 45.2916953,23.9793904 C43.0030983,25.5692824 42.9439017,28.3578627 44.1810083,30.5776929 C47.5130691,36.5601003 49.2799342,43.1915046 49.7013331,50.0014583 C50.077582,56.0891898 59.5108959,55.3107948 59.134647,49.2381096" id="Fill-172" fill="#1C1E22"></path>
                                <path d="M33.1230012,63.4899614 C30.5073185,59.016196 28.529754,54.048912 27.4511736,48.9722917 C26.9204117,46.4766127 25.1294667,44.4102546 22.3522477,44.6379552 C20.061644,44.8255324 17.4830845,47.2198997 18.0168564,49.7346373 C19.475699,56.5977546 21.8666357,62.9131867 25.4124059,68.9778472 C26.7036923,71.1846373 30.0638464,71.4725231 32.0123143,70.0872608 C34.2507448,68.4973688 34.4172977,65.7027701 33.1230012,63.4899614" id="Fill-174" fill="#1C1E22"></path>
                                <path d="M20.908154,89.537909 C16.2456769,84.4963966 12.3096112,78.8991744 9.39092256,72.6740201 C6.82640966,67.2051929 -2.08617569,70.3950077 0.501413822,75.9149923 C3.79133472,82.9295756 7.93207993,89.3312731 13.198562,95.0257948 C14.9463639,96.9146065 17.5068634,97.7281096 19.7984704,96.1352083 C21.6917552,94.820162 22.6419092,91.4116744 20.908154,89.537909" id="Fill-176" fill="#1C1E22"></path>
                                <path d="M65.8517444,117.668465 L56.356224,97.0440046 C53.827831,91.5541127 44.916249,94.7459336 47.4667152,100.28598 L56.9622356,120.908434 C59.4906286,126.400332 68.4022107,123.206505 65.8517444,117.668465" id="Fill-178" fill="#1C1E22"></path>
                                <path d="M93.0626711,92.254267 C91.5155354,85.058125 88.9309559,78.4267207 85.03703,72.162446 C81.8243655,66.9945448 74.1187868,72.487446 77.327438,77.6493287 C80.2531499,82.3578164 82.4614804,87.5869059 83.6293572,93.0176157 C84.1661391,95.5112886 85.9470508,97.5796528 88.7272798,97.3519522 C91.0138701,97.1653781 93.6034663,94.7680015 93.0626711,92.254267" id="Fill-180" fill="#1C1E22"></path>
                                <path d="M106.032525,145.903742 C103.738911,137.634298 98.9680741,130.428125 92.3952556,124.931211 C87.7257552,121.026196 81.6716586,128.297569 86.356209,132.215625 C91.7420874,136.719483 95.2718043,142.394946 97.1440192,149.144715 C98.770418,155.011767 107.650897,151.739699 106.032525,145.903742" id="Fill-182" fill="#1C1E22"></path>
                                <path d="M56.8149467,158.928218 C49.4214038,153.993032 44.3987311,147.136937 41.9937477,138.5776 C40.3452756,132.715563 31.4647968,135.985625 33.104239,141.818573 C35.9035312,151.781227 42.1633106,160.463943 50.7759001,166.212631 C55.7885396,169.557924 61.8897927,162.31564 56.8149467,158.928218" id="Fill-184" fill="#1C1E22"></path>
                                <path d="M96.970142,183.224676 C94.1387431,174.449676 89.2154001,166.824213 82.5964284,160.431543 C78.2178938,156.204537 72.1908872,163.499985 76.5573818,167.715957 C81.9833934,172.958086 85.7709663,179.305617 88.0816366,186.465648 C89.9518447,192.264491 98.8383435,189.013488 96.970142,183.224676" id="Fill-186" fill="#1C1E22"></path>
                            </g>
                            <g id="Group-3" stroke-width="1" fill="none" transform="translate(1895.937514, 327.700638) rotate(-64.000000) translate(-1895.937514, -327.700638) translate(1806.937514, 253.200638)" fill-opacity="0.3">
                                <path d="M65.369164,55.2298225 C58.4210999,48.7548997 50.2660291,43.8798997 41.3143139,40.7131559 C35.5852964,38.6879244 32.1448759,47.5020448 37.9070033,49.5403164 C46.1583938,52.4572917 53.4094638,56.9230324 59.8066994,62.8863812 C64.2444305,67.0221065 69.7798052,59.3424769 65.369164,55.2298225" id="Fill-198" fill="#1C1E22"></path>
                                <path d="M119.838074,65.9140972 C114.416075,60.7100849 108.994077,55.5050694 103.572079,50.3020602 C101.714914,48.5175694 99.129331,47.8324614 96.9240104,49.5547608 C95.1129988,50.9691127 94.3334109,54.4327701 96.1765291,56.2012114 L112.442524,71.8152546 C114.299689,73.5977392 116.885272,74.2838503 119.091596,72.5615509 C120.901604,71.1482022 121.681192,67.6835417 119.838074,65.9140972" id="Fill-200" fill="#1C1E22"></path>
                                <path d="M111.01338,94.8498302 C102.57537,91.9418827 95.005241,87.6426543 88.1595167,81.9210494 C83.4910196,78.0200463 77.9355783,85.6806173 82.5980554,89.5766049 C90.0186882,95.7796914 98.4627182,100.52429 107.60607,103.676991 C113.34813,105.655077 116.792564,96.8419599 111.01338,94.8498302" id="Fill-202" fill="#1C1E22"></path>
                                <path d="M97.3571482,128.483619 L81.0901499,124.045965 C75.274846,122.460085 71.7962989,131.266181 77.6838426,132.873125 C83.105841,134.352677 88.5288426,135.831227 93.9498376,137.309776 C99.7661449,138.896659 103.244692,130.08956 97.3571482,128.483619" id="Fill-204" fill="#1C1E22"></path>
                                <path d="M149.156597,139.664421 C142.246659,134.887724 135.336721,130.112029 128.425781,125.335332 C123.430198,121.881705 117.83663,129.515193 122.864319,132.990887 L143.595135,147.319977 C148.590718,150.773603 154.184286,143.140116 149.156597,139.664421" id="Fill-207" fill="#1C1E22"></path>
                                <path d="M176.104952,119.854468 C169.253207,111.351304 161.09613,104.062878 151.822346,98.2901157 C146.688303,95.0952855 141.071659,102.716736 146.259881,105.945671 C154.862437,111.30115 162.351296,117.864344 168.709402,125.755625 C172.528078,130.494205 179.930651,124.603079 176.104952,119.854468" id="Fill-210" fill="#1C1E22"></path>
                                <path d="M79.2261624,13.370625 C73.4991515,8.00611883 66.8149634,3.92756944 59.4796137,1.15102623 C53.7897261,-1.00260031 50.3593389,7.81553241 56.0733064,9.97818673 C62.7203714,12.4939275 68.4804921,16.1702392 73.6647011,21.0261806 C78.0913955,25.1729398 83.6257669,17.491304 79.2261624,13.370625" id="Fill-214" fill="#1C1E22"></path>
                            </g>
                            <g id="Group-223" stroke-width="1" fill="none" transform="translate(1782.338707, 39.000000)" fill-opacity="0.3">
                                <path d="M5.11346686,31.1265602 C7.15725121,26.1963904 10.2545326,21.7627484 13.7200364,17.7032577 C18.7266559,11.8382114 24.6483128,6.60711572 31.6385168,3.34708485 C38.6287208,0.0860509027 46.7747616,-1.07752934 54.1622845,1.14330399 C63.3507858,3.90680708 70.4654027,11.6466219 74.2710356,20.4527176 C78.0766684,29.2598163 78.931506,39.0649861 78.7659565,48.6575015 C78.579337,59.4527176 77.1174843,70.3833503 72.797143,80.2798009 C69.1189331,88.7057268 63.4762021,96.1396003 57.2926759,102.944539 C54.4592704,106.061128 51.4161688,109.127563 47.6145493,110.94315 C40.1989331,114.485048 31.083675,112.544076 24.214874,108.03119 C15.6996076,102.435974 8.01610217,92.5686126 2.9773761,83.7815756 C0.236277021,79.0028719 0.254336971,71.7214676 0.0737374704,66.3389058 C-0.310538133,54.9679182 0.725902333,41.710125 5.11346686,31.1265602" id="Fill-190" fill="#1C1E22"></path>
                            </g>
                        </g>
                    </g>
                </g>
            </g>
        </g>
    </g>
</svg>