<svg height="402pt" viewBox="0 -3 402.13505 402" width="402pt" xmlns="http://www.w3.org/2000/svg"><path d="m402.136719 194.628906c0 88.601563-71.828125 160.425782-160.429688 160.425782-88.601562 0-160.425781-71.824219-160.425781-160.425782 0-88.601562 71.824219-160.429687 160.425781-160.429687 88.601563 0 160.429688 71.828125 160.429688 160.429687zm0 0" fill="#edebdc"/><path d="m198.574219 389.1875h-172.507813c-10.628906 0-19.242187-8.613281-19.242187-19.242188v-261.886718c0-10.628906 8.613281-19.246094 19.242187-19.246094h172.507813c10.625 0 19.242187 8.617188 19.242187 19.246094v261.886718c0 10.628907-8.613281 19.242188-19.242187 19.242188zm0 0" fill="#9dc1e4"/><path d="m198.574219 396.015625h-172.507813c-14.375 0-26.066406-11.695313-26.066406-26.066406v-261.894531c0-14.375 11.691406-26.066407 26.066406-26.066407h172.507813c14.375 0 26.066406 11.691407 26.066406 26.066407v261.890624c0 14.375-11.691406 26.070313-26.066406 26.070313zm-172.507813-300.375c-6.84375 0-12.414062 5.566406-12.414062 12.414063v261.890624c0 6.847657 5.570312 12.414063 12.414062 12.414063h172.507813c6.84375 0 12.414062-5.566406 12.414062-12.414063v-261.890624c0-6.847657-5.570312-12.414063-12.414062-12.414063zm0 0" fill="#4c241d"/><path d="m166.21875 218.519531h-108.433594c-9.644531 0-17.464844-7.816406-17.464844-17.464843v-61.121094c0-9.644532 7.820313-17.464844 17.464844-17.464844h108.433594c9.644531 0 17.464844 7.820312 17.464844 17.464844v61.121094c0 9.648437-7.820313 17.464843-17.464844 17.464843zm0 0" fill="#6b4f5b"/><path d="m166.21875 225.347656h-108.433594c-13.394531 0-24.289062-10.902344-24.289062-24.292968v-61.117188c0-13.394531 10.898437-24.289062 24.289062-24.289062h108.433594c13.394531 0 24.289062 10.894531 24.289062 24.289062v61.117188c0 13.390624-10.894531 24.292968-24.289062 24.292968zm-108.433594-96.046875c-5.867187 0-10.636718 4.773438-10.636718 10.632813v61.121094c0 5.867187 4.773437 10.636718 10.636718 10.636718h108.433594c5.867188 0 10.636719-4.773437 10.636719-10.636718v-61.121094c0-5.859375-4.769531-10.632813-10.636719-10.632813zm0 0" fill="#4c241d"/><path d="m165.007812 300.28125c0 28.441406-23.054687 51.496094-51.496093 51.496094-28.441407 0-51.5-23.054688-51.5-51.496094s23.058593-51.496094 51.5-51.496094c28.441406 0 51.496093 23.054688 51.496093 51.496094zm0 0" fill="#fff"/><path d="m113.507812 358.609375c-32.160156 0-58.324218-26.167969-58.324218-58.328125s26.164062-58.320312 58.324218-58.320312c32.160157 0 58.328126 26.160156 58.328126 58.320312s-26.167969 58.328125-58.328126 58.328125zm0-102.996094c-24.628906 0-44.667968 20.039063-44.667968 44.667969 0 24.632812 20.039062 44.671875 44.667968 44.671875 24.636719 0 44.675782-20.039063 44.675782-44.671875 0-24.625-20.039063-44.667969-44.675782-44.667969zm0 0" fill="#4c241d"/><path d="m136.246094 300.28125c0 12.558594-10.179688 22.734375-22.734375 22.734375-12.558594 0-22.734375-10.175781-22.734375-22.734375 0-12.554688 10.175781-22.734375 22.734375-22.734375 12.554687 0 22.734375 10.179687 22.734375 22.734375zm0 0" fill="#fff"/><path d="m113.507812 329.839844c-16.300781 0-29.558593-13.257813-29.558593-29.558594 0-16.296875 13.261719-29.558594 29.558593-29.558594 16.300782 0 29.5625 13.261719 29.5625 29.558594 0 16.300781-13.261718 29.558594-29.5625 29.558594zm0-45.464844c-8.769531 0-15.90625 7.132812-15.90625 15.90625 0 8.769531 7.136719 15.90625 15.90625 15.90625 8.773438 0 15.910157-7.136719 15.910157-15.90625 0-8.773438-7.136719-15.90625-15.910157-15.90625zm0 0" fill="#4c241d"/><path d="m333.867188 396.015625c-30.113282 0-54.613282-24.5-54.613282-54.613281v-283.308594c0-24.464844-19.90625-44.371094-44.371094-44.371094-24.46875 0-44.375 19.90625-44.375 44.371094v27.621094c0 3.773437-3.054687 6.828125-6.824218 6.828125-3.773438 0-6.828125-3.054688-6.828125-6.828125v-27.621094c0-31.992188 26.03125-58.0273438 58.027343-58.0273438 31.996094 0 58.027344 26.0351558 58.027344 58.0273438v283.308594c0 22.585937 18.371094 40.957031 40.957032 40.957031 22.585937 0 40.960937-18.371094 40.960937-40.957031v-190.828125c0-11.734375-9.542969-21.273438-21.273437-21.273438-3.769532 0-6.828126-3.050781-6.828126-6.824219 0-3.773437 3.058594-6.828124 6.828126-6.828124 19.261718 0 34.925781 15.667968 34.925781 34.925781v190.828125c0 30.113281-24.496094 54.613281-54.613281 54.613281zm0 0" fill="#4c241d"/><path d="m343.347656 157.082031h-12.132812c-6.074219 0-11-4.925781-11-11v-46.269531c0-6.074219 4.925781-11 11-11h12.132812c6.078125 0 11 4.925781 11 11v46.265625c0 6.078125-4.921875 11.003906-11 11.003906zm0 0" fill="#6b4f5b"/><path d="m343.347656 163.90625h-12.132812c-9.828125 0-17.824219-8-17.824219-17.824219v-46.269531c0-9.824219 7.996094-17.824219 17.824219-17.824219h12.132812c9.832032 0 17.828125 8 17.828125 17.824219v46.265625c0 9.828125-7.996093 17.828125-17.828125 17.828125zm-12.132812-68.265625c-2.300782 0-4.171875 1.875-4.171875 4.171875v46.265625c0 2.300781 1.875 4.175781 4.171875 4.175781h12.132812c2.300782 0 4.175782-1.875 4.175782-4.175781v-46.265625c0-2.300781-1.875-4.171875-4.175782-4.171875zm0 0" fill="#4c241d"/></svg>