<svg height="511pt" viewBox="0 0 511 511.99914" width="511pt" xmlns="http://www.w3.org/2000/svg"><path d="m436.5 231.226562c-.179688-1.320312-3.34375-2.636718-3.550781-3.953124-.671875-4.238282 1.472656-8.425782.511719-12.5625-18.695313-80.445313-90.828126-140.386719-176.960938-140.386719-60.191406 0-113.546875 29.269531-146.605469 74.355469-22.050781 30.070312-27.0625 67.175781-27.0625 107.320312 0 100.339844 73.328125 177 173.667969 177 40.164062 0 77.28125-8.355469 107.359375-30.421875 36.613281-26.863281 62.792969-67.117187 71.320313-113.546875l2.996093-33.03125c0-8.402344-.570312-16.671875-1.675781-24.773438zm0 0" fill="#d6bdef"/><path d="m256.5 437.675781c40.15625 0 77.28125-13.039062 107.359375-35.101562-37.632813-21.425781-87.8125-59.542969-141.101563-112.832031-46.476562-46.476563-85.441406-94.628907-109.710937-135.589844-1.117187-1.886719-2.132813-3.683594-3.152344-5.472656-22.046875 30.066406-35.074219 67.179687-35.074219 107.320312 0 100.335938 81.339844 181.675781 181.679688 181.675781zm0 0" fill="#c3aff0"/><path d="m433.460938 214.710938h-102.050782c-13.226562 0-25.671875 5.152343-35.042968 14.515624l-8.835938 8.839844c-6.242188 6.242188-14.542969 9.675782-23.363281 9.675782h-80.976563l.136719 10.097656 14.855469 6.421875h65.984375c13.226562 0 25.667969-5.152344 35.039062-14.515625l8.839844-8.839844c6.242187-6.242188 14.539063-9.679688 23.363281-9.679688h105.085938c-.761719-5.589843-1.773438-11.097656-3.035156-16.515624zm0 0" fill="#ff9a9f"/><path d="m154.304688 264.257812h43.878906c-5.125-5.511718-10.125-11.015624-14.992188-16.515624h-28.886718c-4.566407 0-8.257813 3.699218-8.257813 8.257812 0 4.5625 3.691406 8.257812 8.257813 8.257812zm0 0" fill="#ff8086"/><path d="m231.722656 173.421875h-41.289062c-9.121094 0-16.515625 7.394531-16.515625 16.515625s7.394531 16.515625 16.515625 16.515625h41.289062c9.121094 0 16.515625-7.394531 16.515625-16.515625.003907-9.121094-7.394531-16.515625-16.515625-16.515625zm0 0" fill="#f6d190"/><path d="m191.121094 313.808594h-58.492188c-4.566406 0-8.257812-3.699219-8.257812-8.257813 0-4.5625 3.691406-8.257812 8.257812-8.257812h58.492188c4.5625 0 8.257812 3.695312 8.257812 8.257812 0 4.558594-3.695312 8.257813-8.257812 8.257813zm0 0" fill="#ff8086"/><path d="m297.789062 148.644531h-41.289062c-4.566406 0-8.257812-3.695312-8.257812-8.257812 0-4.558594 3.691406-8.257813 8.257812-8.257813h41.289062c4.5625 0 8.257813 3.699219 8.257813 8.257813 0 4.5625-3.695313 8.257812-8.257813 8.257812zm0 0" fill="#ffe09f"/><path d="m322.5625 313.808594h-24.773438c-4.566406 0-8.257812-3.699219-8.257812-8.257813 0-4.5625 3.691406-8.257812 8.257812-8.257812h24.773438c4.566406 0 8.257812 3.695312 8.257812 8.257812 0 4.558594-3.691406 8.257813-8.257812 8.257813zm0 0" fill="#ff9a9f"/><path d="m429.390625 311.984375c-2.144531 6.519531-4.609375 12.863281-7.394531 19.023437-2.625 5.804688-2.625 12.03125-5.835938 17.496094 24.617188 41.101563 35.871094 77.625 23.167969 90.328125-25.085937 25.082031-134.441406-35.105469-232.5-133.160156-98.054687-98.058594-156.910156-206.082031-131.828125-231.167969 12.707031-12.703125 48.953125-1.617187 90.058594 23.003906 5.5-3.234374 10.707031-4.433593 16.558594-7.085937 6.132812-2.777344 12.445312-5.222656 18.914062-7.316406-89.996094-67.976563-165.914062-99.8125-191.328125-74.398438-36.417969 36.421875 44.773437 176.664063 181.351563 313.238281 136.574218 136.578126 276.816406 217.769532 313.238281 181.347657 25.410156-25.410157-6.433594-101.316407-74.402344-191.308594zm0 0" fill="#ffe09f"/><path d="m413.246094 347.917969c24.617187 41.105469 33.503906 72.925781 20.800781 85.628906-25.085937 25.085937-124.910156-34.070313-222.96875-132.128906-98.054687-98.054688-157.210937-197.878907-132.128906-222.964844 12.703125-12.703125 44.523437-3.816406 85.632812 20.804687 5.496094-3.230468 11.191407-6.1875 17.039063-8.832031-33.0625-20.910156-63.445313-34.25-85.84375-34.25h-.003906c-14.800782.003907-23.667969 5.765625-28.5 10.601563-18.5 18.5-12.660157 53.5625 17.355468 104.214844 25.636719 43.265624 66.398438 93.734374 114.769532 142.105468 71.042968 71.042969 165.949218 142.730469 217.828124 142.730469 14.792969 0 23.664063-5.765625 28.496094-10.601563 22.378906-22.378906 6.242188-66.941406-23.730468-114.21875-2.628907 5.792969-5.542969 11.460938-8.746094 16.910157zm0 0" fill="#f6d190"/><path d="m388.625 272.515625c0 9.125 7.398438 16.515625 16.519531 16.515625h30.035157c1.96875-10.714844 2.996093-21.742188 2.996093-33.03125h-33.03125c-9.125 0-16.519531 7.394531-16.519531 16.515625zm0 0" fill="#ff9a9f"/></svg>